<svg width="56" height="81" viewBox="0 0 56 81" fill="none" xmlns="http://www.w3.org/2000/svg">
    <path d="M53.5066 80.1912H2.94044C1.7599 80.1912 0.776123 79.2058 0.776123 78.0233V6.8783C0.776123 5.69584 1.7599 4.71045 2.94044 4.71045H53.5066C54.6872 4.71045 55.671 5.69584 55.671 6.8783V78.0233C55.671 79.2058 54.6872 80.1912 53.5066 80.1912Z" fill="#424953"/>
    <path d="M53.5066 79.4029H2.94044C1.7599 79.4029 0.776123 78.4175 0.776123 77.235V5.89289C0.776123 4.71043 1.7599 3.72504 2.94044 3.72504H53.5066C54.6872 3.72504 55.671 4.71043 55.671 5.89289V77.0379C55.671 78.4175 54.6872 79.4029 53.5066 79.4029Z" fill="#5B5F7E"/>
    <path d="M49.5714 74.8702H6.87538C5.89161 74.8702 5.10458 74.0819 5.10458 72.8994V11.8053C5.10458 10.8199 5.89161 9.83453 6.87538 9.83453H49.3746C50.3584 9.83453 51.1454 10.6228 51.1454 11.8053V72.8994C51.3422 74.0819 50.5551 74.8702 49.5714 74.8702Z" fill="#CBCFD8"/>
    <path d="M49.5714 74.0818H6.87538C5.89161 74.0818 5.10458 73.2935 5.10458 72.111V11.017C5.10458 10.0316 5.89161 9.0462 6.87538 9.0462H49.3746C50.3584 9.0462 51.1454 9.83451 51.1454 11.017V72.111C51.3422 73.0964 50.5551 74.0818 49.5714 74.0818Z" fill="#FDFDFD"/>
    <path d="M38.7499 5.10463H37.5693C37.3726 2.54262 36.192 0.768921 34.618 0.768921H22.0256C20.6484 0.768921 19.2711 2.7397 19.0743 5.10463H17.8938C15.1392 5.10463 12.9749 7.66664 12.9749 11.017H43.6688C43.6688 7.66664 41.3077 5.10463 38.7499 5.10463ZM23.2062 2.34554H33.2407C34.4212 2.34554 35.405 3.52801 35.6018 5.10463H21.0419C21.0419 3.52801 22.0256 2.34554 23.2062 2.34554Z" fill="#EAEBF8"/>
    <path d="M28.1252 2.34554H33.0441C34.2246 2.34554 35.2084 3.52801 35.4052 5.10463H28.1252V11.017H43.4722C43.4722 7.66664 41.3078 5.10463 38.5533 5.10463H37.3727C37.176 2.54262 35.9954 0.768921 34.4214 0.768921H28.1252V2.34554V2.34554Z" fill="#BDBFDF"/>
    <path d="M43.472 11.017H12.7781V12.0024H43.472V11.017Z" fill="#5B5F7E"/>
    <path d="M31.2733 14.7614C29.109 14.7614 26.9447 15.3526 24.9771 16.141L31.2733 29.9364H16.1231C16.1231 38.2137 22.8128 45.1114 31.2733 45.1114C39.7338 45.1114 46.4235 38.4107 46.4235 29.9364C46.4235 21.4621 39.7338 14.7614 31.2733 14.7614Z" fill="#262E7F"/>
    <path d="M22.6159 14.7614C17.5003 17.1263 13.7619 22.4474 13.7619 28.5568H28.9121L22.6159 14.7614Z" fill="#262E7F"/>
    <path d="M20.255 43.7318H14.5491V49.4471H20.255V43.7318Z" fill="#262E7F"/>
    <path d="M33.4376 48.0676H21.2387V49.4472H33.4376V48.0676Z" fill="#8A879D"/>
    <path d="M42.4885 50.8267H13.1719V52.2062H42.4885V50.8267Z" fill="#8A879D"/>
    <path d="M42.4882 53.3887H21.8289V54.7682H42.4882V53.3887Z" fill="#8A879D"/>
    <path d="M42.4885 55.9507H13.1719V57.1332H42.4885V55.9507Z" fill="#8A879D"/>
    <path d="M27.3383 58.5126H13.1719V59.8921H27.3383V58.5126Z" fill="#8A879D"/>
    <path d="M42.4884 58.5126H29.109V59.8921H42.4884V58.5126Z" fill="#8A879D"/>
    <path d="M25.3707 61.0747H13.1719V62.4542H25.3707V61.0747Z" fill="#8A879D"/>
    <path d="M42.4884 61.2717H26.5512V62.6513H42.4884V61.2717Z" fill="#8A879D"/>
    <path d="M20.2551 63.6367H13.1719V65.0163H20.2551V63.6367Z" fill="#262E7F"/>
    <path d="M20.2551 53.3887H13.1719V54.7682H20.2551V53.3887Z" fill="#262E7F"/>
    <path d="M42.2915 66.1987H36.9791V67.3812H42.2915V66.1987Z" fill="#8A879D"/>
    <path d="M28.9121 63.6367H21.8289V65.0163H28.9121V63.6367Z" fill="#8A879D"/>
    <path d="M42.2917 63.6367H29.8961V65.0163H42.2917V63.6367Z" fill="#8A879D"/>
    <path d="M35.9955 66.1987H13.1719V67.3812H35.9955V66.1987Z" fill="#8A879D"/>
    <path d="M25.3707 68.7609H13.1719V70.1404H25.3707V68.7609Z" fill="#8A879D"/>
    <path d="M42.2916 68.7609H26.5512V70.1404H42.2916V68.7609Z" fill="#8A879D"/>
    <path d="M42.4881 48.0676H34.6179V49.4472H42.4881V48.0676Z" fill="#8A879D"/>
    <path d="M13.2581 46.8595H10.5035C10.3068 46.8595 10.3068 46.6624 10.3068 46.6624V23.9985C10.3068 23.8014 10.5035 23.8014 10.5035 23.8014H13.2581C13.4549 23.8014 13.4548 23.9985 13.4548 23.9985C13.4548 24.1955 13.2581 24.1955 13.2581 24.1955H10.897V46.2682H13.2581C13.4549 46.2682 13.4548 46.4653 13.4548 46.4653C13.4548 46.6624 13.2581 46.8595 13.2581 46.8595Z" fill="#262E7F"/>
</svg>

