<svg width="81" height="81" viewBox="0 0 81 81" fill="none" xmlns="http://www.w3.org/2000/svg">
    <path d="M80.2779 40.4801C80.2779 62.4739 62.558 80.1912 40.5609 80.1912C18.5639 80.1912 0.843994 62.4739 0.843994 40.4801C0.843994 18.4862 18.5639 0.768921 40.5609 0.768921C62.558 0.768921 80.2779 18.4862 80.2779 40.4801Z" fill="#262E7F"/>
    <path d="M73.5569 40.48C73.5569 58.8082 58.8922 73.4708 40.5613 73.4708C22.2304 73.4708 7.56564 58.8082 7.56564 40.48C7.56564 22.1518 22.2304 7.4892 40.5613 7.4892C58.8922 7.4892 73.5569 22.1518 73.5569 40.48Z" fill="#EAEBF8"/>
    <path d="M72.9458 41.091C72.9458 58.8083 58.8921 72.8599 41.1722 72.8599C23.4524 72.8599 9.39868 58.8083 9.39868 41.091C9.39868 23.3737 23.4524 9.32208 41.1722 9.32208C58.8921 9.32208 72.9458 23.9847 72.9458 41.091Z" fill="#FDFDFD"/>
    <path d="M43.005 40.48C43.005 42.3128 41.7829 43.5347 39.9498 43.5347C38.1167 43.5347 36.8947 42.3128 36.8947 40.48C36.8947 38.6472 38.1167 37.4253 39.9498 37.4253C41.7829 37.4253 43.005 38.6472 43.005 40.48Z" fill="#524C6F"/>
    <path d="M41.1721 39.8692H40.5611C39.95 39.8692 39.95 39.2582 39.95 39.2582L43.0052 31.9269H43.6162C44.2272 31.9269 44.2272 32.5379 44.2272 32.5379L41.1721 39.8692Z" fill="#524C6F"/>
    <path d="M39.9502 40.4801C39.3392 39.8691 39.3392 39.8691 39.9502 39.2582C39.9502 39.2582 40.5613 39.2582 41.1723 39.2582L55.226 53.3098C55.837 53.9208 55.837 53.9208 55.226 54.5317C55.226 54.5317 54.615 54.5317 54.0039 54.5317L39.9502 40.4801Z" fill="#524C6F"/>
    <path d="M38.7279 39.8691C39.3389 39.8691 39.3389 39.8691 39.3389 39.8691C39.9499 40.4801 39.3389 40.4801 38.7279 39.8691H19.1749C18.5639 39.8691 18.5639 39.8691 18.5639 39.8691H19.1749H38.7279Z" fill="#524C6F"/>
    <path d="M41.172 9.32208H39.95V14.8206H41.172V9.32208Z" fill="#524C6F"/>
    <path d="M71.724 39.869H66.2248V41.0909H71.724V39.869Z" fill="#524C6F"/>
    <path d="M41.172 66.1396H39.95V71.6381H41.172V66.1396Z" fill="#524C6F"/>
    <path d="M14.8979 39.869H9.39862V41.0909H14.8979V39.869Z" fill="#524C6F"/>
    <path d="M58.892 22.7628L58.281 21.5409L61.9472 17.8752L63.1692 19.0971L58.892 22.7628Z" fill="#524C6F"/>
    <path d="M58.281 59.4192L58.892 58.1973L63.1692 61.8629L61.9472 63.0848L58.281 59.4192Z" fill="#524C6F"/>
    <path d="M21.745 58.354L17.8757 62.2612L18.7441 63.1209L22.6134 59.2137L21.745 58.354Z" fill="#524C6F"/>
    <path d="M19.1204 18.052L18.256 18.9158L22.1435 22.8048L23.0078 21.9411L19.1204 18.052Z" fill="#524C6F"/>
</svg>
