<svg width="76" height="81" viewBox="0 0 76 81" fill="none" xmlns="http://www.w3.org/2000/svg">
    <path d="M74.773 30.4914L10.4114 50.4688C9.92747 50.4688 9.44353 50.4687 8.95961 49.9815L0.249023 22.2081C0.249023 21.7208 0.249027 21.2336 1.21687 20.7463L65.5784 0.768921C66.0624 0.768921 66.5463 0.768913 67.0302 1.25617L75.7408 29.0296C75.2569 30.0041 75.2569 30.4914 74.773 30.4914Z" fill="#262E7F"/>
    <path d="M70.4175 24.157L65.5783 8.56493C63.1587 9.05219 60.7391 8.07769 60.2551 5.64142L7.99163 21.7208C8.47555 24.157 7.5077 26.5933 5.08809 27.0806L9.9273 42.6727C12.3469 42.1854 14.7665 43.1599 15.2505 45.5962L67.514 29.5168C66.5461 27.0806 67.9979 24.6443 70.4175 24.157Z" fill="#F0F1F5"/>
    <path d="M47.1895 22.6953C48.6413 28.0551 45.7378 33.4149 40.4146 35.3639C35.0915 36.8257 29.7684 33.9022 27.8327 28.5424C26.3809 23.1826 29.2845 17.8228 34.6076 15.8738C39.9307 14.412 45.7378 17.3356 47.1895 22.6953Z" fill="#BBC2DF"/>
    <path d="M60.2554 18.7973C60.7393 20.7463 59.7715 23.1826 57.3518 24.1571C55.4162 24.6443 52.9966 23.6698 52.0287 21.2336C51.5448 19.2846 52.5126 16.8483 54.9322 15.8738C57.3518 15.3865 59.7715 16.361 60.2554 18.7973Z" fill="#BBC2DF"/>
    <path d="M22.5092 30.4913C22.9931 32.4403 22.0253 34.8766 19.6057 35.8511C17.67 36.3384 15.2504 35.3639 14.2825 32.9276C13.7986 30.9786 14.7665 28.5423 17.1861 27.5678C19.6057 27.0805 22.0253 28.055 22.5092 30.4913Z" fill="#BBC2DF"/>
    <path d="M34.6074 19.2845L34.1235 18.31L36.5431 17.8228L37.027 18.7973C38.9627 18.31 40.4145 19.2845 40.8984 21.2335V21.7208L38.4788 22.6953V22.208C37.9949 21.2335 37.5109 20.7463 36.5431 21.2335C35.5752 21.7208 35.0913 22.208 35.5752 23.1825C36.0592 24.157 36.5431 24.6443 38.9627 25.1316C41.3823 26.1061 42.8341 26.5933 43.318 28.5423C43.8019 30.4914 43.318 31.9531 41.3823 32.9276L41.8662 33.9021L39.4466 34.3894L38.9627 33.4149C37.027 33.9021 35.5752 32.9276 35.0913 30.9786L34.6074 30.0041L37.027 29.0296L37.5109 30.0041C37.9949 30.9786 38.4788 30.9786 39.4466 30.9786C40.4145 30.4914 40.8984 30.0041 40.4145 29.0296C39.9305 28.0551 39.4466 27.5678 37.027 27.0806C34.6074 26.5933 33.1556 25.6188 32.6717 23.6698C32.1878 21.7208 32.6717 20.259 34.6074 19.2845Z" fill="#262E7F"/>
    <path d="M71.8694 55.8285L4.60433 58.752C4.12041 58.752 3.63648 58.2647 3.63648 57.7775L2.18472 28.5423C2.18472 28.0551 2.66865 27.5678 3.15257 27.5678L70.4177 24.6443C70.9016 24.6443 71.3855 25.1315 71.3855 25.6188L72.8373 54.854C73.3212 55.3412 72.8373 55.8285 71.8694 55.8285Z" fill="#262E7F"/>
    <path d="M69.4501 48.5197L68.9662 32.4403C66.5466 32.4403 64.6109 30.4913 64.6109 28.5423L9.92779 30.9786C9.92779 33.4148 7.99211 35.3638 6.05643 35.3638L6.54034 51.4432C8.95995 51.4432 10.8956 53.3922 10.8956 55.3412L65.5788 52.905C65.5788 50.4687 67.0305 48.5197 69.4501 48.5197Z" fill="#F0F1F5"/>
    <path d="M47.6737 41.2109C47.6737 46.5707 43.8024 51.4432 37.9953 51.4432C32.6722 51.4432 27.8329 47.5452 27.8329 41.6982C27.8329 36.3384 31.7043 31.4658 37.5114 31.4658C42.8345 31.4658 47.1898 35.8511 47.6737 41.2109Z" fill="#BBC2DF"/>
    <path d="M61.2232 40.7237C61.2232 43.1599 59.7714 45.1089 57.3518 45.1089C54.9322 45.1089 52.9965 43.6472 52.9965 41.2109C52.9965 38.7747 54.4483 36.8257 56.8679 36.8257C59.2875 36.3384 61.2232 38.2874 61.2232 40.7237Z" fill="#BBC2DF"/>
    <path d="M22.0259 42.1854C22.0259 44.6217 20.5741 46.5707 18.1545 46.5707C15.7349 46.5707 13.7992 45.1089 13.7992 42.6726C13.7992 40.2364 15.251 38.2874 17.6706 38.2874C20.0902 38.2874 22.0259 40.2364 22.0259 42.1854Z" fill="#BBC2DF"/>
    <path d="M36.0595 34.3894V33.4149H38.4791V34.3894C40.4148 34.8766 41.3826 35.8511 41.8665 37.8001V38.2874H39.4469V37.8001C39.4469 36.8256 38.963 36.3384 37.9951 36.3384C37.0273 36.3384 36.5434 36.8256 36.5434 37.8001C36.5434 38.7746 37.0273 39.7492 38.963 40.7237C41.3826 42.1854 42.3505 43.1599 42.3505 45.1089C42.3505 47.0579 41.3826 48.5197 39.4469 49.007V49.9815H37.0273V49.007C35.0916 48.5197 34.1238 47.5452 33.6399 45.5962V44.6217H36.0595V45.5962C36.0595 46.5707 36.5434 47.058 37.5112 47.058C38.4791 47.058 38.963 46.5707 38.963 45.5962C38.963 44.6217 38.4791 43.6472 36.5434 42.6727C34.1238 41.2109 33.1559 40.2364 33.1559 38.2874C33.1559 36.3384 34.1238 34.8766 36.0595 34.3894Z" fill="#262E7F"/>
    <path d="M67.0302 80.1913L1.21687 65.0864C0.732949 65.0864 0.249023 64.5992 0.249023 63.6247L6.54 35.364C6.54 34.8767 7.50786 34.3895 7.99178 34.3895L74.289 49.4943C74.7729 49.4943 75.2569 49.9816 75.2569 50.9561L68.9659 79.2167C68.482 79.704 67.5141 80.1913 67.0302 80.1913Z" fill="#262E7F"/>
    <path d="M66.5462 72.3952L69.9336 56.8031C67.514 56.3158 66.0623 53.8796 66.5462 51.4433L13.3148 39.262C12.8309 41.6982 10.4113 43.16 7.99167 42.6727L4.60422 58.2648C7.02383 58.7521 8.47559 61.1884 7.99167 63.6246L61.2231 75.806C62.1909 73.3697 64.6105 71.9079 66.5462 72.3952Z" fill="#F0F1F5"/>
    <path d="M47.1896 59.7266C45.7379 65.0864 40.4147 68.4972 35.0916 67.0354C29.7685 65.5737 26.381 60.2139 27.8328 54.8541C29.2846 49.4943 34.6077 46.0835 39.9308 47.5453C45.254 49.0071 48.6414 54.3668 47.1896 59.7266Z" fill="#BBC2DF"/>
    <path d="M60.739 62.6502C60.255 65.0865 57.8354 66.061 55.8997 65.5738C53.4801 65.0865 52.5123 62.6502 52.9962 60.7012C53.4801 58.2649 55.8997 57.2904 57.8354 57.7777C59.7711 58.265 61.2229 60.214 60.739 62.6502Z" fill="#BBC2DF"/>
    <path d="M22.509 53.8797C22.025 56.316 19.6054 57.2905 17.6697 56.8032C15.2501 56.316 14.2823 53.8797 14.7662 51.9307C15.2501 49.4944 17.6697 48.5199 19.6054 49.0072C21.5411 49.4944 22.9929 51.4435 22.509 53.8797Z" fill="#BBC2DF"/>
    <path d="M37.9948 49.9816V49.0071L40.4144 49.4943V50.4688C42.3501 51.4433 42.8341 52.9051 42.3501 54.3669V54.8541L39.9305 54.3669V53.8796C39.9305 52.9051 39.9305 52.4178 38.9627 51.9306C37.9948 51.9306 37.5109 51.9306 37.5109 52.9051C37.5109 53.8796 37.5109 54.8541 38.9627 56.3159C40.8984 58.2649 41.3823 59.7267 40.8984 61.1884C40.4145 63.1374 38.9627 64.1119 37.027 64.1119V65.0864L34.6074 64.5992V63.6247C32.6717 62.6502 32.1878 61.1884 32.6717 59.2394V58.2649L35.0913 58.7521L34.6074 59.7266C34.6074 60.7011 34.6074 61.1884 35.5752 61.1884C36.5431 61.1884 37.027 61.1884 37.5109 60.2139C37.5109 59.2394 37.5109 58.2649 36.0592 56.8031C34.1235 54.8541 33.6395 53.3924 34.1235 51.9306C35.0913 50.9561 36.0591 49.9816 37.9948 49.9816Z" fill="#262E7F"/>
</svg>
