<svg width="67" height="81" viewBox="0 0 67 81" fill="none" xmlns="http://www.w3.org/2000/svg">
    <path d="M65.5671 50.4633H0.638962V80.1912H65.5671V50.4633Z" fill="#B5B9CB"/>
    <path d="M65.5671 49.5759H0.638962V79.3038H65.5671V49.5759Z" fill="#F0F1F5"/>
    <path d="M65.5671 48.6886H0.638962V78.4165H65.5671V48.6886Z" fill="#B5B9CB"/>
    <path d="M65.5671 47.8011H0.638962V77.5291H65.5671V47.8011Z" fill="#F0F1F5"/>
    <path d="M65.5671 46.47H0.638962V76.1979H65.5671V46.47Z" fill="#B5B9CB"/>
    <path d="M65.5671 29.6094H0.638962V75.7543H65.5671V29.6094Z" fill="#F0F1F5"/>
    <path d="M52.6704 63.7743H65.5671L49.5574 75.7542L52.6704 63.7743Z" fill="#B5B9CB"/>
    <path d="M0.194336 29.6094V12.3051C0.194336 10.974 1.08377 10.0866 2.86263 10.0866H63.3437C64.6778 10.0866 66.0119 10.974 66.0119 12.3051V29.6094H0.194336Z" fill="#262E7F"/>
    <path d="M65.5671 29.6094H0.638962V30.9405H65.5671V29.6094Z" fill="#B5B9CB"/>
    <path d="M14.8698 12.7489C16.6486 14.5237 16.6486 16.7422 14.8698 18.517C13.0909 20.2918 10.8674 20.2918 9.08852 18.517C7.30967 16.7422 7.30967 14.5237 9.08852 12.7489C10.8674 11.4178 13.0909 11.4178 14.8698 12.7489Z" fill="#9584E9"/>
    <path d="M28.6562 12.7489C30.4351 14.5237 30.4351 16.7422 28.6562 18.517C26.8774 20.2918 24.6538 20.2918 22.875 18.517C21.0961 16.7422 21.0961 14.5237 22.875 12.7489C24.6538 11.4178 27.3221 11.4178 28.6562 12.7489Z" fill="#9584E9"/>
    <path d="M42.8871 12.7489C44.6659 14.5237 44.6659 16.7422 42.8871 18.517C41.1082 20.2918 38.8846 20.2918 37.1058 18.517C35.3269 16.7422 35.3269 14.5237 37.1058 12.7489C38.4399 11.4178 41.1082 11.4178 42.8871 12.7489Z" fill="#9584E9"/>
    <path d="M56.6728 12.7489C58.4517 14.5237 58.4517 16.7422 56.6728 18.517C54.894 20.2918 52.6704 20.2918 50.8915 18.517C49.1127 16.7422 49.1127 14.5237 50.8915 12.7489C52.6704 11.4178 55.3387 11.4178 56.6728 12.7489Z" fill="#9584E9"/>
    <path d="M21.0955 40.7019L21.985 33.6027H24.2085V43.8078H22.8744V36.7086L21.985 43.8078H20.6508L19.3167 36.7086V43.8078H17.9825V33.6027H20.2061L21.0955 40.7019Z" fill="#524C6F"/>
    <path d="M30.879 43.8078H29.1002L28.6554 42.033H26.8766L26.4319 43.8078H25.0977L26.8766 33.6027H29.1002L30.879 43.8078ZM27.3213 40.2582H28.6554L27.766 35.3775L27.3213 40.2582Z" fill="#524C6F"/>
    <path d="M34.8815 43.8078C34.8815 43.3641 34.8815 43.3641 34.8815 42.4767V40.7019C34.8815 39.8145 34.4368 39.3708 33.9921 39.3708H33.5474V43.3641H31.7685V33.159H33.9921C35.7709 33.159 36.2157 34.0464 36.2157 35.3775V36.2649C36.2157 37.1523 35.7709 38.0397 35.3262 38.4834C36.2156 38.9271 36.2157 39.3708 36.2157 40.7019V42.4767C36.2157 42.9204 36.2157 43.3641 36.2157 43.8078H34.8815ZM33.1027 34.9338V38.0397H33.5474C33.9921 38.0397 34.4368 37.596 34.4368 37.1523V36.2649C34.4368 35.3775 33.9921 35.3775 33.5474 35.3775H33.1027V34.9338Z" fill="#524C6F"/>
    <path d="M41.9972 39.8145V41.1456C41.9972 42.9204 41.1078 43.8078 39.7736 43.8078C38.4395 43.8078 37.5501 42.9204 37.5501 41.1456V35.8212C37.5501 34.0464 38.4395 33.159 39.7736 33.159C41.1078 33.159 41.9972 34.0464 41.9972 35.8212V36.7086H40.6631V35.8212C40.6631 34.9338 40.2184 34.9338 39.7736 34.9338C39.3289 34.9338 38.8842 35.3775 38.8842 35.8212V41.1456C38.8842 42.033 39.3289 42.033 39.7736 42.033C40.2184 42.033 40.6631 41.5893 40.6631 41.1456V39.8145H41.9972Z" fill="#524C6F"/>
    <path d="M44.6653 43.8078H42.8865V33.6027H44.6653V38.0397H46.4442V33.6027H48.223V43.8078H46.4442V39.3708H44.6653V43.8078Z" fill="#524C6F"/>
    <path d="M25.9874 49.576C24.6533 49.576 24.2086 50.0197 24.2086 51.7945V54.4567H20.6509V52.2382C20.6509 48.2449 22.4297 46.0264 26.4321 46.0264C29.9899 46.0264 32.2134 48.2449 32.2134 52.2382C32.2134 55.3441 30.8793 58.0063 27.3216 61.9996C25.098 64.2181 24.6533 65.5492 24.6533 66.8803V67.324H31.7687V70.8736H20.6509V67.7677C20.6509 65.1055 21.5403 62.887 24.6533 60.2248C27.7663 57.1189 28.211 55.3441 28.211 52.6819C28.211 50.0197 27.3216 49.576 25.9874 49.576Z" fill="#8A879D"/>
    <path d="M45.5547 46.4701V50.0197L39.7734 70.8736H35.771L41.5522 50.0197H33.9921V46.4701H45.5547Z" fill="#8A879D"/>
    <path d="M14.4251 15.8547C14.4251 17.1858 13.0909 18.5169 11.7568 18.5169C10.4227 18.5169 9.0885 17.1858 9.0885 15.8547V3.43112C9.0885 2.10002 10.4227 0.768921 11.7568 0.768921C13.0909 0.768921 14.4251 2.10002 14.4251 3.43112V15.8547Z" fill="#BDBFDF"/>
    <path d="M28.6559 15.8547C28.6559 17.1858 27.3218 18.5169 25.9876 18.5169C24.6535 18.5169 23.3194 17.1858 23.3194 15.8547V3.43112C23.3194 2.10002 24.6535 0.768921 25.9876 0.768921C27.3218 0.768921 28.6559 2.10002 28.6559 3.43112V15.8547Z" fill="#BDBFDF"/>
    <path d="M42.4426 15.8547C42.4426 17.1858 41.1085 18.5169 39.7743 18.5169C38.4402 18.5169 37.106 17.1858 37.106 15.8547V3.43112C37.106 2.10002 38.4402 0.768921 39.7743 0.768921C41.1085 0.768921 42.4426 2.10002 42.4426 3.43112V15.8547Z" fill="#BDBFDF"/>
    <path d="M56.2283 15.8547C56.2283 17.1858 54.8942 18.5169 53.56 18.5169C52.2259 18.5169 50.8918 17.1858 50.8918 15.8547V3.43112C50.8918 2.10002 52.2259 0.768921 53.56 0.768921C54.8942 0.768921 56.2283 2.10002 56.2283 3.43112V15.8547Z" fill="#BDBFDF"/>
</svg>
